<svg xmlns="http://www.w3.org/2000/svg" viewBox="0 0 49.16 54.4"><g id="Camada_2" data-name="Camada 2"><g id="Camada_1-2" data-name="Camada 1"><circle cx="36" cy="6" r="6"/><path d="M19.5,37.9l-4.3-4.4a1.93,1.93,0,0,0-2.8,0L1.5,43.8A5.3,5.3,0,0,0,0,47.1a4.61,4.61,0,0,0,4.6,4.8,4.82,4.82,0,0,0,3-1.1l11.7-10a2.1,2.1,0,0,0,.7-1.4A1.74,1.74,0,0,0,19.5,37.9Z"/><path d="M48.5,18.7a4.56,4.56,0,0,0-6.6-1.3l-7.1,5.2a2.17,2.17,0,0,0-.8,2,1.91,1.91,0,0,0,1.5,1.6l2.5.6a11.53,11.53,0,0,0,2.6.3,10.83,10.83,0,0,0,6.9-2.5A4.65,4.65,0,0,0,48.5,18.7Z"/><path d="M28.3,27.1c2.1-1.9,4.1-4.4,4.6-7.1a7.36,7.36,0,0,0-1.3-5.8c-.1-.1-.1-.2-.2-.3C24,5.5,10.6,9.3,3.9,12.9A4.59,4.59,0,0,0,2,19a4.59,4.59,0,0,0,6.1,1.9c2.8-1.5,11.3-4.7,15.5-1.9a18.79,18.79,0,0,1-4.9,4,4.79,4.79,0,0,0-2.2,3.5,4.48,4.48,0,0,0,1.6,3.8l8.8,7.4-6.7,9.6a4.61,4.61,0,0,0,1.1,6.3,5,5,0,0,0,2.6.8,4.69,4.69,0,0,0,3.7-1.9l9-13a4.49,4.49,0,0,0-.8-6Z"/></g></g></svg>