<svg xmlns="http://www.w3.org/2000/svg" xmlns:xlink="http://www.w3.org/1999/xlink" xml:space="preserve" version="1.1" style="shape-rendering:geometricPrecision;text-rendering:geometricPrecision;image-rendering:optimizeQuality;" viewBox="0 0 8217 13467.5" x="0px" y="0px" fill-rule="evenodd" clip-rule="evenodd">
  <defs>
    <style type="text/css">
      .fil0 {fill:white;fill-rule:nonzero}
    </style>
  </defs>
  <g>
    <path class="fil0" d="M4109 0c2269,0 4108,1840 4108,4109 0,2273 -4076,6630 -4108,6665 -32,-35 -4109,-4392 -4109,-6665 0,-2269 1840,-4109 4109,-4109zm2787 1321c-1539,-1539 -4035,-1539 -5575,0 -713,714 -1154,1699 -1154,2788 0,2034 3442,5873 3942,6420 500,-547 3941,-4386 3941,-6420 0,-1089 -441,-2074 -1154,-2788z"/>
    <path class="fil0" d="M4060 1169c1618,0 2930,1312 2930,2930 0,1618 -1312,2929 -2930,2929 -1618,0 -2930,-1311 -2930,-2929 0,-1618 1312,-2930 2930,-2930zm1954 976c-1079,-1079 -2829,-1079 -3908,0 -1079,1079 -1079,2829 0,3908 1079,1078 2829,1078 3908,0 1079,-1079 1079,-2829 0,-3908z"/>
    <path class="fil0" d="M2872 4951c343,320 797,515 1237,663 846,-285 1516,-667 1789,-1573 145,-618 -347,-1335 -1012,-1308 -223,9 -469,100 -723,304 -33,25 -79,26 -108,0 -255,-204 -501,-295 -724,-304 -665,-27 -1156,690 -1011,1308 32,108 72,213 119,315l839 0 109 -297c76,-224 387,-199 436,20l12 57 181 -689c61,-230 405,-234 444,33l180 876 475 0c299,0 299,453 0,453l-674 0c-99,-3 -186,-77 -207,-177l-27 -130 -164 625c-37,271 -439,256 -453,-16l-68 -302 -1384 0c-79,0 -79,120 0,120l677 0c28,1 39,8 57,22zm-89 144l-645 0c-300,0 -300,-453 0,-453l1341 0c52,5 97,-60 139,-156l138 613c14,65 101,97 124,-9l343 -1213 174 722c5,23 25,42 46,43l672 0c57,0 66,-55 53,-88 -7,-17 -24,-31 -53,-31l-610 -1 -209 -1013c-20,-96 -104,-77 -119,-20l-354 1343 -163 -717c-12,-54 -94,-71 -117,0l-148 408c-353,0 -706,0 -1059,0 -62,-126 -146,-304 -177,-439 -174,-727 403,-1549 1179,-1517 241,10 503,101 771,302 267,-201 529,-292 770,-302 775,-32 1363,801 1178,1522 -293,973 -1011,1387 -1922,1691l-52 0c-463,-154 -934,-354 -1300,-685z"/>
  </g>
  <text x="0" y="10789" fill="#000000" font-size="5px" font-weight="bold" font-family="'Helvetica Neue', Helvetica, Arial-Unicode, Arial, Sans-serif">Created by johny</text>
  <text x="0" y="10794" fill="#fff" font-size="5px" font-weight="bold" font-family="'Helvetica Neue', Helvetica, Arial-Unicode, Arial, Sans-serif">from the Noun Project</text>
</svg>
