<svg  xmlns="http://www.w3.org/2000/svg" viewBox="0 0 94.8 70.9"><g id="Camada_2" data-name="Camada 2"><g id="Camada_1-2" data-name="Camada 1"><path  d="M89.6,60.3a2.77,2.77,0,0,0-.9.1l-3.3-5.6a1.8,1.8,0,0,0-1.6-.9H72.4a1.9,1.9,0,0,0,0,3.8H82.6l2.7,4.6a5.55,5.55,0,0,0-1.2,3.3,5.3,5.3,0,0,0,10.6,0A5.17,5.17,0,0,0,89.6,60.3Z"/><path d="M72.4,47.6H83.7a1.89,1.89,0,0,0,1.6-.9l3.3-5.6c.3,0,.6.1.9.1a5.27,5.27,0,0,0,5.3-5.3,5.3,5.3,0,1,0-9.4,3.3l-2.7,4.6H72.4a1.9,1.9,0,0,0,0,3.8Z"/><path d="M22.4,43.8H12.1L9.4,39.2a5.55,5.55,0,0,0,1.2-3.3,5.34,5.34,0,0,0-5.3-5.3,5.3,5.3,0,0,0,0,10.6,2.77,2.77,0,0,0,.9-.1l3.3,5.6a1.8,1.8,0,0,0,1.6.9H22.4a1.9,1.9,0,0,0,1.9-1.9A2,2,0,0,0,22.4,43.8Z"/><path d="M22.4,53.9H11.1a1.89,1.89,0,0,0-1.6.9L6.2,60.4c-.3,0-.6-.1-.9-.1A5.27,5.27,0,0,0,0,65.6a5.34,5.34,0,0,0,5.3,5.3,5.26,5.26,0,0,0,4.1-8.6l2.7-4.6H22.4a1.9,1.9,0,1,0,0-3.8Z"/><path d="M62.3,0A5.27,5.27,0,0,0,57,5.3a2.77,2.77,0,0,0,.1.9L51.5,9.5a1.8,1.8,0,0,0-.9,1.6V22.5a1.9,1.9,0,0,0,1.9,1.9,1.84,1.84,0,0,0,1.9-1.9V12.3L59,9.6a5.55,5.55,0,0,0,3.3,1.2,5.27,5.27,0,0,0,5.3-5.3A5.51,5.51,0,0,0,62.3,0Z"/><path d="M35.8,9.5l4.6,2.7V22.5a1.9,1.9,0,0,0,1.9,1.9,1.84,1.84,0,0,0,1.9-1.9V11.2a1.89,1.89,0,0,0-.9-1.6L37.7,6.3c0-.3.1-.6.1-.9a5.3,5.3,0,1,0-10.6,0,5.34,5.34,0,0,0,5.3,5.3A4.79,4.79,0,0,0,35.8,9.5Z"/><path d="M61.9,37.2H56.3V32.7a3.59,3.59,0,0,0-3.6-3.6H42.1a3.59,3.59,0,0,0-3.6,3.6v4.5H32.9A3.8,3.8,0,0,0,29.1,41V61.1a3.8,3.8,0,0,0,3.8,3.8h29a3.8,3.8,0,0,0,3.8-3.8V41A3.8,3.8,0,0,0,61.9,37.2ZM43.2,33.8h8.4v3.4H43.2ZM55.2,53a.65.65,0,0,1-.6.6H50v4.6a.65.65,0,0,1-.6.6h-4a.65.65,0,0,1-.6-.6V53.6H40.2a.65.65,0,0,1-.6-.6V49.1a.65.65,0,0,1,.6-.6h4.6V43.9a.65.65,0,0,1,.6-.6h4a.65.65,0,0,1,.6.6v4.6h4.6a.65.65,0,0,1,.6.6Z"/></g></g></svg>