<svg xmlns="http://www.w3.org/2000/svg" viewBox="0 0 60.17 60.13"><g id="Camada_2" data-name="Camada 2"><g id="Camada_1-2" data-name="Camada 1"><path d="M50.1,20.11A10,10,0,1,0,42.83,17L39.6,20.2a13.92,13.92,0,0,0-18.31,0l-3.6-3.6A10,10,0,1,0,16.25,18l3.63,3.63a13.92,13.92,0,0,0,0,18.31L17,42.85a10,10,0,1,0,1.31,1.51l3-3a13.92,13.92,0,0,0,18.31,0L42.23,44a10,10,0,1,0,1.38-1.44L41,39.92a13.92,13.92,0,0,0,0-18.31l3.34-3.33A10,10,0,0,0,50.1,20.11Zm-38-6h-1v3h-2v-3h-1v-2h4Zm3,2.24V12.89a2.78,2.78,0,0,0-2.77-2.78h0A3,3,0,0,0,13,7.47a3,3,0,0,0-5.93.64,3,3,0,0,0,.78,2A2.77,2.77,0,0,0,5.1,12.86v3.49A8,8,0,1,1,16.34,15.1a8.14,8.14,0,0,1-1.24,1.25Zm-3,37.76h-1v3h-2v-3h-1v-2h4Zm3,2.24V52.89a2.78,2.78,0,0,0-2.77-2.78h0A3,3,0,0,0,13,47.47a3,3,0,0,0-5.93.64,3,3,0,0,0,.78,2A2.77,2.77,0,0,0,5.1,52.86v3.49A8,8,0,1,1,16.34,55.1a8.14,8.14,0,0,1-1.24,1.25Zm37-2.24h-1v3h-2v-3h-1v-2h4Zm-2-12a8,8,0,0,1,5,14.24V52.89a2.78,2.78,0,0,0-2.77-2.78h0A3,3,0,0,0,53,47.47a3,3,0,0,0-5.93.64,3,3,0,0,0,.78,2,2.77,2.77,0,0,0-2.78,2.75v3.49a8,8,0,0,1,5-14.24Zm-27-7h-3v-2h3Zm9.34,7.48a11.2,11.2,0,0,1-4,0V40.77a2,2,0,1,1,4,0Zm1.66-7.48h-7v-2h7Zm0-5h-7v-2h7Zm7,5h-3v-2h3Zm1.34-4H37.1v9.38a10.68,10.68,0,0,1-1,.65v-16h-11v16a9.51,9.51,0,0,1-1-.65V31.11H18.44a12.32,12.32,0,0,1,12-12.34A12.3,12.3,0,0,1,42.44,31.11Zm9.66-17h-1v3h-2v-3h-1v-2h4Zm-10-4a8,8,0,1,1,13,6.24V12.89a2.78,2.78,0,0,0-2.77-2.78h0A3,3,0,0,0,53,7.47a3,3,0,0,0-5.93.64,3,3,0,0,0,.78,2,2.77,2.77,0,0,0-2.78,2.75v3.49A8,8,0,0,1,42.1,10.11Z"/></g></g></svg>