<svg id="Layer_1" enable-background="new 0 0 1580 1580" height="100"  viewBox="0 0 1580 1580" width="100" xmlns="http://www.w3.org/2000/svg"><g><g><g><path d="m942.8 778.3c-18.3 0-36.3-4.6-52.5-13.7-28.8-16.1-48.4-44-53.8-76.5-6.7-40.2-29.6-75.4-62.9-96.4l-396-250.2c-11.2-7.1-14.6-21.9-7.5-33.1s21.9-14.6 33.1-7.5l396 250.2c44.8 28.3 75.7 75.4 84.6 129.1 3 18.1 13.9 33.6 30 42.6 27 15.1 61.6 6.9 78.9-18.8 4.1-6 7-12.6 8.6-19.5 6.8-28.3 22.4-52.9 45-71.2 5.5-4.5 10.2-9.9 13.9-16.2 15.7-26.6 8.3-61.5-16.9-79.4-17.4-12.3-39.5-14.6-59-6-39.7 17.5-84.8 14.4-120.7-8.3l-420.5-265.7c-11.2-7.1-14.6-21.9-7.5-33.1s21.9-14.6 33.1-7.5l420.5 265.7c22.4 14.1 50.6 16 75.7 4.9 35.1-15.5 74.8-11.5 106.1 10.7 22.1 15.6 37.4 38.9 43.1 65.5s1.2 54.1-12.5 77.4c-6.6 11.2-15 21-25 29.1-14.4 11.6-24.2 27.3-28.6 45.3-3 12.5-8.2 24.3-15.5 35.1-15.1 22.4-38 38.2-64.5 44.5-8.4 2-16.8 3-25.2 3z"/></g><g><path d="m977.6 1465.7c-1.3 0-2.7-.1-4-.3-13.1-2.2-21.9-14.6-19.6-27.7l48.8-287.6c11-66.4 44.6-126.1 94.4-168.1 10.7-9 17.5-21.7 19.1-35.8 3.2-28-16-54.1-43.7-59.6-7.5-1.5-15-1.4-22.4.2-25.2 5.6-51.1 1.2-73.2-12.2-6.4-3.9-13.5-6.4-21.1-7.4-27.9-3.8-54.5 14.8-60.6 42.3-3.7 16.9.5 34.2 11.7 47.3 31.9 37.5 45.5 87.6 37.2 137.5l-56.3 332.6c-2.2 13.1-14.6 21.9-27.7 19.7s-21.9-14.6-19.7-27.7l56.2-332.5c6-35.8-3.7-71.7-26.4-98.5-21-24.7-29-57-22-88.7 11.4-51.7 61.4-86.6 113.9-79.5 14.2 1.9 27.5 6.6 39.6 14 11.4 6.9 24.8 9.2 37.8 6.3 13.9-3.1 28-3.2 42.1-.4 52 10.3 88 59.5 82.1 112.1-3 26.3-15.7 50.1-35.9 67.1-41.1 34.6-68.8 84.1-78 139.3l-48.8 287.7c-1.9 11.6-12 19.9-23.5 19.9z"/></g><path d="m1188.7 824.4c-2.3 0-4.6-.1-6.9-.4l-69.7-8.3c-21.6-2.6-39.6-16.8-47.1-37.2s-2.9-42.9 11.9-58.8c14-15 29-31.2 41.8-44.9 12.7-13.6 31.2-20.2 49.6-17.8 18.4 2.5 34.6 13.8 43.2 30.2l27.9 53.2c9.9 18.9 8.5 41.6-3.6 59.2-10.7 15.6-28.4 24.8-47.1 24.8zm-28-120c-1.9 0-4.5.5-6.8 3-12.8 13.8-27.8 29.9-41.8 44.9-3.4 3.7-2.7 7.6-1.9 9.6.7 2 2.7 5.5 7.7 6.1l69.7 8.3c4.9.6 7.6-2.2 8.8-4 1.2-1.7 2.9-5.3.6-9.7l-27.9-53.2c-2-3.7-5.3-4.7-7.1-4.9-.4-.1-.8-.1-1.3-.1z" /></g><g><path d="m1192.7 1558c-1.6 0-3.1-.2-4.7-.5-13-2.6-21.4-15.2-18.8-28.2l139.4-695.8c29-145-36.2-294.3-162.3-371.6l-646.2-395.4c-11.3-6.9-14.9-21.7-7.9-33s21.7-14.9 33-7.9l646.1 395.4c70.6 43.2 125.4 106.1 158.5 182 33.1 75.8 42.1 158.8 25.8 240l-139.4 695.8c-2.2 11.3-12.3 19.2-23.5 19.2z"/><path d="m661.6 1486.2c-2.5 0-5.1-.4-7.7-1.3-12.6-4.2-19.3-17.9-15.1-30.4.8-2.4 82.1-246.1 57.5-372.3-11.8-60.1-2.7-129.6 27-206.7 11.6-30.2 24.2-55.5 33.5-72.7-82-34.9-159.5-73.4-230.8-114.8-63-36.5-121.3-75.3-173.3-115.3-89.3-68.5-129.1-116.8-130.7-118.8-8.4-10.3-6.8-25.4 3.4-33.8 10.3-8.4 25.4-6.8 33.7 3.4.4.5 39 47.1 124.6 112.6 79.1 60.5 215.5 150.1 416.6 232.9 6.6 2.7 11.6 8.2 13.8 15 2.1 6.8 1.2 14.2-2.7 20.2-.9 1.4-92.1 146-68 268.8 27.1 138.7-55.5 386.4-59.1 396.9-3.4 10-12.7 16.3-22.7 16.3z"/></g></g></svg>