<svg id="Layer_1" enable-background="new 0 0 450 450" height="512" viewBox="0 0 450 450" width="512" xmlns="http://www.w3.org/2000/svg"><g><g><path d="m277.6 415.4h-252.2c-10.9 0-19.7-8.9-19.7-19.7v-46.6c0-10.9 8.9-19.7 19.7-19.7h252.2c10.9 0 19.7 8.9 19.7 19.7v46.6c0 10.8-8.8 19.7-19.7 19.7zm-252.2-76.1c-5.4 0-9.7 4.4-9.7 9.7v46.6c0 5.4 4.4 9.7 9.7 9.7h252.2c5.4 0 9.7-4.4 9.7-9.7v-46.6c0-5.4-4.4-9.7-9.7-9.7z"/></g><g><path d="m224.4 339.3c-2.8 0-5-2.2-5-5v-14c0-4.9-4-9-9-9h-117.9c-4.9 0-9 4-9 9v14c0 2.8-2.2 5-5 5s-5-2.2-5-5v-14c0-10.5 8.5-19 19-19h117.9c10.5 0 19 8.5 19 19v14c0 2.8-2.2 5-5 5z"/></g><g><path d="m118.5 311.4c-.7 0-1.3-.1-2-.4-2.5-1.1-3.7-4-2.6-6.6 3.5-8.1 5.8-15.2.2-26-1.3-2.4-.3-5.5 2.1-6.7 2.4-1.3 5.5-.3 6.7 2.1 7.7 14.6 4.3 25.1.2 34.6-.8 1.9-2.7 3-4.6 3zm66 0c-1.9 0-3.8-1.1-4.6-3-4.1-9.5-7.5-19.9.2-34.6 1.3-2.4 4.3-3.4 6.7-2.1s3.4 4.3 2.1 6.7c-5.6 10.8-3.4 17.8.2 26 1.1 2.5-.1 5.5-2.6 6.6-.7.3-1.4.4-2 .4z"/></g><g><path d="m272 281.1h-241.1c-14.6 0-26.6-11.9-26.6-26.6v-150.4c0-14.6 11.9-26.6 26.6-26.6h241.1c14.6 0 26.6 11.9 26.6 26.6v150.5c0 14.6-11.9 26.5-26.6 26.5zm-241.1-193.6c-9.1 0-16.6 7.4-16.6 16.6v150.5c0 9.1 7.4 16.6 16.6 16.6h241.1c9.1 0 16.6-7.4 16.6-16.6v-150.5c0-9.1-7.4-16.6-16.6-16.6z"/></g><g><path d="m252.6 258.8h-202.3c-13 0-23.6-10.6-23.6-23.6v-111.7c0-13 10.6-23.6 23.6-23.6h202.3c13 0 23.6 10.6 23.6 23.6v111.7c.1 13-10.5 23.6-23.6 23.6zm-202.3-148.9c-7.5 0-13.6 6.1-13.6 13.6v111.7c0 7.5 6.1 13.6 13.6 13.6h202.3c7.5 0 13.6-6.1 13.6-13.6v-111.7c0-7.5-6.1-13.6-13.6-13.6z"/></g><g><path d="m151.5 224.7c-30.9 0-60-12-81.8-33.9-2-2-2-5.1 0-7.1l48.3-48.3c2-2 5.1-2 7.1 0 7.1 7.1 16.5 11 26.5 11s19.4-3.9 26.5-11c2-2 5.1-2 7.1 0l48.3 48.3c2 2 2 5.1 0 7.1-22.1 21.8-51.1 33.9-82 33.9zm-71.1-37.5c19.5 17.8 44.6 27.5 71.1 27.5s51.6-9.7 71.1-27.5l-41.3-41.3c-8.4 6.8-18.8 10.5-29.8 10.5s-21.4-3.7-29.8-10.5z"/></g><g><g><g><path d="m73.9 365.6h-35.4c-2.8 0-5-2.2-5-5s2.2-5 5-5h35.4c2.8 0 5 2.2 5 5s-2.2 5-5 5z"/></g><g><path d="m73.9 389.2h-35.4c-2.8 0-5-2.2-5-5s2.2-5 5-5h35.4c2.8 0 5 2.2 5 5s-2.2 5-5 5z"/></g><g><path d="m139.3 365.6h-35.4c-2.8 0-5-2.2-5-5s2.2-5 5-5h35.4c2.8 0 5 2.2 5 5s-2.3 5-5 5z"/></g><g><path d="m139.3 389.2h-35.4c-2.8 0-5-2.2-5-5s2.2-5 5-5h35.4c2.8 0 5 2.2 5 5s-2.3 5-5 5z"/></g><g><path d="m204.6 365.6h-35.4c-2.8 0-5-2.2-5-5s2.2-5 5-5h35.4c2.8 0 5 2.2 5 5s-2.2 5-5 5z"/></g><g><path d="m204.6 389.2h-35.4c-2.8 0-5-2.2-5-5s2.2-5 5-5h35.4c2.8 0 5 2.2 5 5s-2.2 5-5 5z"/></g></g><g><path d="m259 397.3h-20c-5.8 0-10.5-4.7-10.5-10.5v-28.9c0-5.8 4.7-10.5 10.5-10.5h20c5.8 0 10.5 4.7 10.5 10.5v28.9c0 5.8-4.7 10.5-10.5 10.5zm-20-39.9c-.2 0-.5.2-.5.5v28.9c0 .2.2.5.5.5h20c.2 0 .5-.2.5-.5v-28.9c0-.2-.2-.5-.5-.5z"/></g></g><g><path d="m322.5 377.4h-30.2c-2.8 0-5-2.2-5-5s2.2-5 5-5h30.2c27.5 0 49.9-22.4 49.9-49.9v-117.9c0-2.8 2.2-5 5-5s5 2.2 5 5v117.8c0 33.1-26.9 60-59.9 60z"/></g><g><path d="m393.9 204.6h-33c-4.7 0-8.6-3.9-8.6-8.6v-44c0-2.8 2.2-5 5-5s5 2.2 5 5v42.6h30.2v-42.6c0-2.8 2.2-5 5-5s5 2.2 5 5v44c0 4.8-3.8 8.6-8.6 8.6z"/></g><g><path d="m377.2 141.2c-12.5 0-24.9-1.3-37.4-3.9-6.6-1.4-10.9-6-10.9-11.8 0-26.7 21.7-48.5 48.5-48.5 26.7 0 48.5 21.7 48.5 48.5 0 5.8-4.3 10.5-10.9 11.8-12.8 2.6-25.3 3.9-37.8 3.9zm-35.3-13.7c23.7 4.9 46.9 4.9 71 0 .1 0 2.9-.6 2.9-2 0-21.2-17.3-38.5-38.5-38.5s-38.5 17.3-38.5 38.5c.1 1.4 3 2 3.1 2z"/></g><g><path d="m396.6 157.2h-38.3c-5.1 0-9.2-3.9-9.2-8.6v-13.9c0-2.8 2.2-5 5-5s5 2.2 5 5v12.5h36.7v-12.6c0-2.8 2.2-5 5-5s5 2.2 5 5v13.9c-.1 4.8-4.2 8.7-9.2 8.7z"/></g><g><path d="m428.5 96.2c-1.7 0-3.4-.9-4.4-2.5-9.5-16.8-27.4-27.3-46.7-27.3s-37.2 10.4-46.7 27.3c-1.4 2.4-4.4 3.3-6.8 1.9s-3.3-4.4-1.9-6.8c11.3-20 32.5-32.4 55.4-32.4s44.2 12.4 55.4 32.4c1.4 2.4.5 5.5-1.9 6.8-.7.4-1.6.6-2.4.6z"/></g><g><path d="m441.4 83.2c-1.7 0-3.4-.9-4.4-2.5-12.1-21.5-35-34.8-59.6-34.8-24.7 0-47.5 13.3-59.6 34.8-1.4 2.4-4.4 3.3-6.8 1.9s-3.3-4.4-1.9-6.8c13.9-24.6 40.1-39.9 68.3-39.9 28.3 0 54.4 15.3 68.3 39.9 1.4 2.4.5 5.5-1.9 6.8-.7.4-1.6.6-2.4.6z"/></g></g></svg>