<svg xmlns="http://www.w3.org/2000/svg" viewBox="0 0 89.99 39.25"><g id="Camada_2" data-name="Camada 2"><g id="Camada_1-2" data-name="Camada 1"><path d="M84.26,21.39a2,2,0,0,1,.13.25,4.16,4.16,0,0,1,.37,1.25,1.62,1.62,0,0,1,.41.17,2,2,0,1,1-2.74.83,2,2,0,0,1,1.38-1,3.39,3.39,0,0,0-1.1-1.93,5.48,5.48,0,0,0-.56-.1H82.1l-.38,0s0,0,0,0,0,.07,0,.11a1.78,1.78,0,0,1-.19.62,45.91,45.91,0,0,1-4.11,6.7l-.27-3.77a2.24,2.24,0,0,0,.9-.88,1.7,1.7,0,0,0,.24-.84,5.47,5.47,0,0,1-1.93.42H76a5.54,5.54,0,0,1-1.93-.42,1.7,1.7,0,0,0,.24.84,2.24,2.24,0,0,0,.9.88L75,28.25a45.16,45.16,0,0,1-4.12-6.7,2,2,0,0,1-.19-.62s0-.08,0-.11v0l-.39,0h0l-.19,0a3.38,3.38,0,0,0-1.35,1.91,1.08,1.08,0,0,1,.49.58,4.65,4.65,0,0,1,2.17,2.41.65.65,0,0,1,0,.56A7.49,7.49,0,0,1,71.9,29c0,1.31-.06,2.12-1.15,2.34a.55.55,0,0,1-.39.16h-.84a.56.56,0,0,1-.56-.57h0a.57.57,0,0,1,.56-.55h.84a.69.69,0,0,1,.24.05c.19,0,.23-.09.25-.13A3.6,3.6,0,0,0,71,29a6.59,6.59,0,0,0-.5-2.37.66.66,0,0,1-.33-.31c-.55-1.16-1.29-1.87-1.94-1.87s-1.45.77-2,2a.7.7,0,0,1-.38.34A6.36,6.36,0,0,0,65.37,29a3.41,3.41,0,0,0,.14,1.3s.06.09.28.13a.58.58,0,0,1,.26-.06h.84a.57.57,0,0,1,.56.53h0v0a.56.56,0,0,1-.56.57h-.84a.54.54,0,0,1-.38-.15,2,2,0,0,1-.38-.1,12.62,12.62,0,0,1,0,3.09,21.3,21.3,0,0,0,6.2.54h9.39c5,0,9.12,0,9.12-5A9.1,9.1,0,0,0,84.26,21.39ZM84,31.8a.23.23,0,0,1-.24.21H82.44V33.3a.22.22,0,0,1-.21.23H81a.22.22,0,0,1-.21-.23V32H79.46a.23.23,0,0,1-.24-.21V30.53a.23.23,0,0,1,.24-.21h1.29V29A.23.23,0,0,1,81,28.8h1.27a.23.23,0,0,1,.21.24v1.28h1.28a.23.23,0,0,1,.24.21Z"/><path d="M66.28,24a3.46,3.46,0,0,1,.89-.63,1.18,1.18,0,0,1,.57-.65,3.63,3.63,0,0,1,.57-1.42,9.14,9.14,0,0,0-4.87,4.24A14.21,14.21,0,0,1,64.55,28,8,8,0,0,1,65,26.37a.64.64,0,0,1,0-.49A6,6,0,0,1,66.28,24Z"/><path d="M69.36,12.72c0,.07,0,.13,0,.19.43,4.93,3.31,8.73,6.8,8.73s6.36-3.8,6.8-8.73a1.37,1.37,0,0,1,0-.19c0-.21,0-.43.06-.65s0-.3,0-.45a8,8,0,0,0-.07-1.1,6.86,6.86,0,0,0-13.64,0,8,8,0,0,0-.08,1.1c0,.15,0,.3,0,.45S69.33,12.51,69.36,12.72Zm2.57-3.91a11.66,11.66,0,0,0,4.25,1,11.66,11.66,0,0,0,4.25-1c1.44.56.76,4.61.76,4.61a3,3,0,0,1,1-.45c-.4,4.3-2.92,7.61-6,7.61s-5.57-3.31-6-7.61a3,3,0,0,1,1,.45S70.49,9.37,71.93,8.81Z"/><circle cx="84.22" cy="24.84" r="1.01"/><path d="M21.91,21.39l.12.25a4.18,4.18,0,0,1,.38,1.25,1.78,1.78,0,0,1,.41.17,2,2,0,1,1-2.75.83,2,2,0,0,1,1.38-1,3.34,3.34,0,0,0-1.1-1.93,5.48,5.48,0,0,0-.56-.1h-.05l-.38,0s0,0,0,0a.45.45,0,0,1,0,.11,1.78,1.78,0,0,1-.19.62A45.91,45.91,0,0,1,15,28.25l-.27-3.77a2.12,2.12,0,0,0,.9-.88,1.7,1.7,0,0,0,.24-.84,5.45,5.45,0,0,1-1.92.42h-.34a5.45,5.45,0,0,1-1.92-.42,1.7,1.7,0,0,0,.24.84,2.12,2.12,0,0,0,.9.88l-.27,3.77a45.91,45.91,0,0,1-4.11-6.7,1.78,1.78,0,0,1-.19-.62.45.45,0,0,1,0-.11s0,0,0,0l-.38,0H7.85l-.19,0a3.36,3.36,0,0,0-1.34,1.91,1.13,1.13,0,0,1,.49.58A4.74,4.74,0,0,1,9,25.76a.68.68,0,0,1,0,.56A7.49,7.49,0,0,1,9.54,29c0,1.31,0,2.12-1.14,2.34a.59.59,0,0,1-.39.16H7.17a.57.57,0,0,1-.57-.57h0a.57.57,0,0,1,.57-.55H8a.59.59,0,0,1,.23.05c.2,0,.23-.09.25-.13A3.51,3.51,0,0,0,8.62,29a6.62,6.62,0,0,0-.51-2.37.61.61,0,0,1-.32-.31c-.55-1.16-1.3-1.87-1.95-1.87s-1.44.77-2,2a.64.64,0,0,1-.38.34A6.56,6.56,0,0,0,3,29a3.68,3.68,0,0,0,.13,1.3s.06.09.29.13a.54.54,0,0,1,.25-.06h.84a.57.57,0,0,1,.56.53h0v0a.56.56,0,0,1-.56.57H3.69a.55.55,0,0,1-.38-.15,1.29,1.29,0,0,1-.94-.56A3.4,3.4,0,0,1,2.09,29a7.45,7.45,0,0,1,.54-2.64.64.64,0,0,1,0-.49A6.2,6.2,0,0,1,3.92,24a3.34,3.34,0,0,1,.9-.63,1.13,1.13,0,0,1,.56-.65A3.63,3.63,0,0,1,6,21.31,9.13,9.13,0,0,0,0,29.86c0,5,4.08,5,9.12,5h9.4a21.34,21.34,0,0,0,6.2-.54,10.91,10.91,0,0,1-.11-1.56,14.33,14.33,0,0,1,2-7.21A9.17,9.17,0,0,0,21.91,21.39ZM21.6,31.8a.22.22,0,0,1-.24.21H20.08V33.3a.22.22,0,0,1-.21.23H18.6a.22.22,0,0,1-.21-.23V32H17.1a.23.23,0,0,1-.24-.21V30.53a.23.23,0,0,1,.24-.21h1.29V29a.23.23,0,0,1,.21-.24h1.27a.23.23,0,0,1,.21.24v1.28h1.28a.23.23,0,0,1,.24.21Z"/><path d="M7,12.72c0,.07,0,.13,0,.19.44,4.93,3.32,8.73,6.8,8.73s6.37-3.8,6.8-8.73c0-.06,0-.12,0-.19s.05-.43.06-.65,0-.3,0-.45a8,8,0,0,0-.08-1.1,7,7,0,0,0-6.82-6.16A7,7,0,0,0,7,10.52a6.71,6.71,0,0,0-.08,1.1c0,.15,0,.3,0,.45A4.62,4.62,0,0,0,7,12.72ZM9.57,8.81a11.66,11.66,0,0,0,4.25,1,11.66,11.66,0,0,0,4.25-1c1.44.56.76,4.61.76,4.61a3,3,0,0,1,1-.45c-.4,4.3-2.92,7.61-6,7.61s-5.57-3.31-6-7.61a3,3,0,0,1,1,.45S8.13,9.37,9.57,8.81Z"/><circle cx="21.86" cy="24.84" r="1.01"/><path d="M55.39,21.9a3.07,3.07,0,0,1,.17.31A5.48,5.48,0,0,1,56,23.82a2.57,2.57,0,0,1,.52.21,2.62,2.62,0,1,1-1.75-.25,4.31,4.31,0,0,0-1.42-2.48c-.23-.05-.47-.1-.72-.13h-.06l-.49-.05s0,0,0,.05,0,.09,0,.14a2.33,2.33,0,0,1-.25.8c-.86,2.17-3.65,6.28-5.29,8.62l-.34-4.85a2.87,2.87,0,0,0,1.16-1.13,2.25,2.25,0,0,0,.31-1.09,7,7,0,0,1-2.48.55h-.43a6.9,6.9,0,0,1-2.47-.55,2.14,2.14,0,0,0,.31,1.09,2.84,2.84,0,0,0,1.15,1.13l-.34,4.85c-1.64-2.34-4.43-6.45-5.29-8.62a2.31,2.31,0,0,1-.24-.8c0-.05,0-.09,0-.14v-.05l-.5.05h-.06l-.24,0a4.41,4.41,0,0,0-1.73,2.45,1.42,1.42,0,0,1,.63.75,6.12,6.12,0,0,1,2.8,3.1.83.83,0,0,1,0,.72,9.75,9.75,0,0,1,.72,3.46c0,1.68-.07,2.73-1.47,3a.74.74,0,0,1-.51.2H36.45a.73.73,0,0,1-.73-.72h0a.72.72,0,0,1,.73-.7h1.07a.81.81,0,0,1,.31.06c.25-.05.3-.12.32-.16a4.65,4.65,0,0,0,.16-1.67,8.32,8.32,0,0,0-.65-3,.88.88,0,0,1-.42-.41c-.7-1.48-1.66-2.4-2.5-2.4s-1.85,1-2.55,2.53a.89.89,0,0,1-.5.45,8.43,8.43,0,0,0-.58,2.87,4.32,4.32,0,0,0,.18,1.67s.07.12.36.17a.72.72,0,0,1,.33-.07h1.08a.72.72,0,0,1,.72.68h0v0a.72.72,0,0,1-.72.72H32a.7.7,0,0,1-.48-.18A1.68,1.68,0,0,1,30.28,34a4.32,4.32,0,0,1-.36-2.3,9.61,9.61,0,0,1,.7-3.39.83.83,0,0,1,0-.64,8.09,8.09,0,0,1,1.63-2.4,4.31,4.31,0,0,1,1.15-.81,1.46,1.46,0,0,1,.73-.83,4.72,4.72,0,0,1,.73-1.83,11.73,11.73,0,0,0-7.65,11c0,.2,0,.39,0,.58s0,.15,0,.22l0,.34,0,.22c0,.1,0,.2,0,.29s0,.16.05.23l.06.25a2.17,2.17,0,0,0,.07.24l.06.21a2.18,2.18,0,0,0,.09.23,1.34,1.34,0,0,0,.07.18,1.47,1.47,0,0,0,.1.22l.08.17.11.19.1.16c0,.07.09.13.13.19l.1.14.15.18.11.12.17.16.11.11.18.15.12.1.2.13.13.1.2.11.15.09.21.1.15.08.23.1.16.06.24.08.17.06.24.08.18.05.26.06.18,0,.26,0,.2,0,.27,0,.2,0,.28,0,.21,0,.29,0,.21,0,.29,0,.23,0,.29,0h.54l.25,0H54.56l.28,0h.26l.28,0h.25l.27,0,.25,0,.26,0,.25,0,.25,0,.23,0,.26,0,.22,0,.24,0,.22,0,.23-.06.21,0,.22-.07.2-.06.22-.07.19-.07.2-.08.18-.08.2-.1.17-.08.19-.11.16-.09.17-.12c.05,0,.11-.07.15-.11l.17-.13.14-.12.15-.14.13-.13L61.5,37l.12-.14.12-.18.11-.15.11-.19a1.4,1.4,0,0,0,.1-.16,2,2,0,0,0,.1-.21,1,1,0,0,0,.08-.18l.09-.22.07-.19a2.33,2.33,0,0,0,.07-.25l.06-.2.06-.27c0-.07,0-.14,0-.21s0-.2,0-.3l0-.21,0-.35c0-.07,0-.14,0-.21s0-.38,0-.58A11.71,11.71,0,0,0,55.39,21.9ZM55,35.28a.28.28,0,0,1-.3.27H53v1.66a.29.29,0,0,1-.27.3H51.14a.29.29,0,0,1-.27-.3V35.55H49.22a.29.29,0,0,1-.31-.27V33.65a.29.29,0,0,1,.31-.27h1.65V31.73a.29.29,0,0,1,.27-.31h1.63a.29.29,0,0,1,.27.31v1.65H54.7a.28.28,0,0,1,.3.27Z"/><path d="M36.24,10.75a2.29,2.29,0,0,0,0,.25c.56,6.32,4.26,11.21,8.74,11.21S53.18,17.32,53.74,11a2.29,2.29,0,0,0,0-.25c0-.28.07-.55.09-.84s0-.38,0-.58a9.36,9.36,0,0,0-.1-1.41,8.8,8.8,0,0,0-17.52,0,9.36,9.36,0,0,0-.11,1.41c0,.2,0,.39,0,.58S36.2,10.47,36.24,10.75Zm3.29-5A15.12,15.12,0,0,0,45,7a15.12,15.12,0,0,0,5.47-1.31c1.85.72,1,5.93,1,5.93a3.7,3.7,0,0,1,1.23-.58c-.51,5.53-3.75,9.78-7.67,9.78s-7.16-4.25-7.67-9.78a3.7,3.7,0,0,1,1.23.58S37.68,6.44,39.53,5.72Z"/><circle cx="55.33" cy="26.33" r="1.31"/></g></g></svg>