<svg xmlns="http://www.w3.org/2000/svg" viewBox="0 0 37.64 47.9"><g id="Camada_2" data-name="Camada 2"><g id="Camada_1-2" data-name="Camada 1"><path d="M22.64,42.8a42.35,42.35,0,0,0-7.7-2.7c-1.3-.3-3.9-1.7-6-1.5s-4.4,0-5-.9a18,18,0,0,0-1.8-2.1c-.1,0-1.5-1.8-.6-2.4h.1a2.76,2.76,0,0,0,1.9,1.2c.4,1.8,1.8,1.8,3,1.1,2,1.4,2.5,0,3.9.4.6.8,16.5,6.6,17.4,6.7.6.1,7.6,1.7,9.7,2.2V43c-2.4-.5-17.8-4.5-25.6-7.6a5.33,5.33,0,0,0-2.4-.6,4,4,0,0,1-1.5.3c-.8-.1-1.4-1-2.2-1.1H5c-.3-.1-.5-.3-.4-.6a6.15,6.15,0,0,1,1.9-1.2c2.4-1.3,1.6-.2,8.5,2,4.3,1.5,7.9,3,22.6,6.3V38.3c-4-1-16.3-6.1-21.3-8.2a1.37,1.37,0,0,1-.3-2.3l.6-.4c11.1-5.6,7.8-11.5,13.3-15.5,4.7-3.7,5.6-9.9,5.8-11.9h-3.5c.4,4.4-4.7,3.1-5.8,0h-9.9c-1.2,3.6-.7,6-3.4,9C4.34,18.8,1.74,26.2.94,28.9c-.4,1.5-.4,3.6-.9,5.9-.4,1.7,2.2,3.7,3,3.9a8.64,8.64,0,0,1,2.2,1.2c.3.2,26.6,7,32.2,8V47C34.44,46.8,25.34,44.2,22.64,42.8ZM6.24,26.6c2-1.7,6.3-7.3,7.1-8.3,2.3-3.2,3.1-3,7.3-10.2,3.1-4.9,3.8-6,4.1-7a6.84,6.84,0,0,0,3.8,3.5c-11.1,16.9-7.2,8.5-15.5,21.5-1.6,2.5-1,4.4-1.3,5.8-2.7-1-3.2-2.1-5.8-.7-1.5.8-2.3,1.1-2.4,2.1C.24,32.2,4.24,28.3,6.24,26.6Z"/></g></g></svg>