<svg xmlns="http://www.w3.org/2000/svg" xmlns:xlink="http://www.w3.org/1999/xlink" version="1.1" x="0px" y="0px" viewBox="0 0 100 125" style="enable-background:new 0 0 100 100;" xml:space="preserve"><g><path d="M49.4,19.4l9.4-8.5l-8.5-9.4c-0.9-1-2.5-1.1-3.6-0.2c-1,0.9-1.1,2.5-0.2,3.6l2.5,2.8C26.1,8.1,7.5,27,7.5,50.1   c0,16.5,9.7,31.6,24.6,38.6c0.3,0.2,0.7,0.2,1.1,0.2c1,0,1.9-0.5,2.3-1.5c0.6-1.3,0-2.8-1.2-3.4c-13.2-6.1-21.7-19.5-21.7-34   c0-20.4,16.4-37,36.7-37.4L46,15.6c-1,0.9-1.1,2.5-0.2,3.6c0.5,0.6,1.2,0.8,1.9,0.8C48.3,20,48.9,19.8,49.4,19.4 M32.5,45.5h12.8   V32.7h9.3v12.8h12.8v9.3H54.7v12.8h-9.3V54.8H32.5V45.5z M50,77.2c14.9,0,27-12.1,27-27c0-14.9-12.1-27-27-27   c-14.9,0-27,12.1-27,27C23,65.1,35.1,77.2,50,77.2 M92.5,50.1c0-16.5-9.7-31.6-24.6-38.6c-1.3-0.6-2.8,0-3.4,1.2   c-0.6,1.3,0,2.8,1.2,3.4c13.2,6.1,21.7,19.5,21.7,34c0,20.4-16.4,37-36.7,37.4l3.2-2.9c1-0.9,1.1-2.5,0.2-3.6   c-0.9-1-2.5-1.1-3.6-0.2l-9.4,8.5l8.5,9.4c0.5,0.6,1.2,0.8,1.9,0.8c0.6,0,1.2-0.2,1.7-0.7c1-0.9,1.1-2.5,0.2-3.6l-2.5-2.8   C73.9,92.1,92.5,73.3,92.5,50.1"/></g><text x="0" y="115" fill="#000000" font-size="5px" font-weight="bold" font-family="'Helvetica Neue', Helvetica, Arial-Unicode, Arial, Sans-serif">Created by Rediffusion</text><text x="0" y="120" fill="#000000" font-size="5px" font-weight="bold" font-family="'Helvetica Neue', Helvetica, Arial-Unicode, Arial, Sans-serif">from the Noun Project</text></svg>